<?xml version="1.0" encoding="UTF-8" standalone="no"?>
<svg
   id="Layer_2"
   data-name="Layer 2"
   viewBox="0 0 317.21999 121.33999"
   version="1.1"
   sodipodi:docname="ntns-logo-w-text.svg"
   width="317.22"
   height="121.34"
   xmlns:inkscape="http://www.inkscape.org/namespaces/inkscape"
   xmlns:sodipodi="http://sodipodi.sourceforge.net/DTD/sodipodi-0.dtd"
   xmlns="http://www.w3.org/2000/svg"
   xmlns:svg="http://www.w3.org/2000/svg">
  <sodipodi:namedview
     id="namedview8"
     pagecolor="#ffffff"
     bordercolor="#000000"
     borderopacity="0.25"
     inkscape:showpageshadow="2"
     inkscape:pageopacity="0.0"
     inkscape:pagecheckerboard="0"
     inkscape:deskcolor="#d1d1d1" />
  <defs
     id="defs1">
    <style
       id="style1">
      .cls-1 {
        fill: #be1e2d;
      }

      .cls-2 {
        opacity: .48;
      }
    </style>
  </defs>
  <g
     id="g4"
     transform="translate(-112,-180.05)">
    <polygon
       class="cls-1"
       points="234.98,213.67 257.28,250.53 245.47,213.39 268.44,213.39 277.31,277.86 249.83,271.14 229.16,234.44 243.82,272.19 210.59,285.35 210.34,214.35 "
       id="polygon1" />
    <polygon
       class="cls-1"
       points="300.69,233.33 287.83,280.8 323.52,289.87 313.63,234.86 331.39,239.81 332.29,211.01 274.99,213.32 278.74,238.93 "
       id="polygon2" />
    <polygon
       class="cls-1"
       points="359.77,216.97 366.51,272.53 365.38,218.52 385.33,224.05 379.69,288.24 359.71,289.56 349.92,235.65 354.5,289.22 333.01,290.83 341.32,211.85 "
       id="polygon3" />
    <polygon
       class="cls-1"
       points="390.94,254.86 412.16,258.81 410.92,266.57 391.16,260.82 385.85,287.83 423.39,285.34 426.66,250.15 401.69,245.69 402.82,242.41 427.74,246.08 429.22,236.21 393.02,226.2 "
       id="polygon4" />
  </g>
  <g
     id="g8"
     transform="translate(-112,-180.05)">
    <polygon
       class="cls-1"
       points="137.61,182.08 141.97,194.58 140.95,182.95 148.37,184.26 146.48,204.47 140.52,199.67 133.98,187.61 137.75,198.51 124.09,198.07 129.32,180.05 "
       id="polygon5" />
    <polygon
       class="cls-1"
       points="157.38,192.17 148.37,205.54 157.38,214.27 161.01,194.35 165.67,198.28 169.3,188.97 152.15,182.28 150.26,191.15 "
       id="polygon6" />
    <polygon
       class="cls-1"
       points="176.98,197.72 174.22,218.8 178.58,198.89 184.25,202.81 177.12,225.05 170.73,223.74 172.33,203.83 169.13,223.6 162.44,222 171.74,194.38 "
       id="polygon7" />
    <polygon
       class="cls-1"
       points="182.65,219.09 187.88,223.6 186.72,226.22 182.07,221.27 178.14,229.41 188.03,234.79 192.68,222.58 186.5,217.35 187.15,216.33 193.4,221.27 194.86,217.93 186.28,209.06 "
       id="polygon8" />
    <path
       class="cls-1"
       d="m 176.25,258.78 c 6.4,-9.74 10.7,-22 10.7,-22 -3.56,-2.01 -7.56,-4.07 -11.99,-6.04 l 1.45,-3.16 -14.46,-2.72 -3.94,-7.79 -3.71,6.35 -4.07,25.06 c -1.31,-2.04 -3.05,-20.5 -3.05,-20.5 -6.98,2.47 -22.53,-0.58 -22.53,-0.58 1.31,-1.45 22.1,-1.26 22.1,-1.26 -4.41,-0.5 -21.41,-8.01 -22.1,-7.76 3.34,-1.31 24.28,6.69 24.28,6.69 l 6.83,-9.01 -17.16,-14.1 -25.58,-1.45 -1.02,40.71 14.39,10.47 c 0.95,-0.95 -3.59,39.22 -4.16,44.26 6.47,2.83 13.49,4.65 20.85,5.24 1,-12.59 5.84,-33.22 5.84,-33.22 1.24,3.41 0.57,21.28 -0.06,33.42 9.95,-0.07 19.37,-2.37 27.79,-6.43 -0.91,-13.18 -1.27,-33.54 -1.27,-33.54 -20.21,0.44 -34.17,-6.1 -34.17,-6.1 3.78,-1.89 35.04,3.49 35.04,3.49 z"
       id="path8" />
  </g>
</svg>
