<?xml version="1.0" encoding="UTF-8"?>
<svg xmlns="http://www.w3.org/2000/svg" id="Layer_2" data-name="Layer 2" viewBox="0 0 595.28 595.28">
  <defs>
    <style>
      .cls-1 {
        fill: #be1e2d;
      }
    </style>
  </defs>
  <polygon class="cls-1" points="196.45 138.97 218.27 63.84 252.8 72.32 270.98 124.43 266.74 75.95 297.64 81.41 289.76 165.63 264.92 145.63 237.65 95.34 253.41 140.78 196.45 138.97"/>
  <polygon class="cls-1" points="313.39 73.16 305.51 110.12 335.2 114.36 297.64 170.1 335.2 206.46 350.35 123.45 369.74 139.81 384.89 101.03 313.39 73.16"/>
  <polygon class="cls-1" points="356.29 238.69 395.07 123.57 416.88 137.5 405.37 225.36 423.54 142.35 447.17 158.71 417.49 251.41 390.83 245.96 397.49 162.95 384.16 245.35 356.29 238.69"/>
  <polygon class="cls-1" points="491.4 221.72 455.66 184.76 440.51 226.57 462.32 245.35 457.47 256.26 438.09 235.66 421.73 269.59 462.93 292 482.32 241.11 456.57 219.3 459.29 215.06 485.34 235.66 491.4 221.72"/>
  <path class="cls-1" d="m413.84,391.97c26.65-40.58,44.59-91.7,44.59-91.7-14.85-8.39-31.52-16.97-49.99-25.18l6.04-13.19-60.25-11.34-16.44-32.46-15.45,26.45-16.95,104.43c-5.46-8.49-12.73-85.45-12.73-85.45-29.1,10.31-93.91-2.42-93.91-2.42,5.44-6.04,92.09-5.23,92.09-5.23-18.4-2.1-89.23-33.39-92.09-32.33,13.93-5.44,101.18,27.88,101.18,27.88l28.48-37.56-71.5-58.77-106.62-6.06-4.24,169.66,59.97,43.62c3.98-3.98-14.94,163.48-17.33,184.45,26.97,11.81,56.22,19.38,86.92,21.84,4.17-52.46,24.32-138.44,24.32-138.44,5.16,14.2,2.36,88.68-.25,139.3,41.48-.31,80.75-9.89,115.83-26.79-3.81-54.92-5.3-139.78-5.3-139.78-84.23,1.82-142.4-25.43-142.4-25.43,15.77-7.89,146.02,14.53,146.02,14.53Z"/>
</svg>
